<svg xmlns="http://www.w3.org/2000/svg" version="1.1" xmlns:xlink="http://www.w3.org/1999/xlink" xmlns:svgjs="http://svgjs.com/svgjs" width="1440" height="250" preserveAspectRatio="none" viewBox="0 0 1440 250"><g mask="url(&quot;#SvgjsMask1000&quot;)" fill="none"><rect width="1440" height="250" x="0" y="0" fill="#0e2a47"></rect><path d="M41 250L291 0L385.5 0L135.5 250z" fill="url(#SvgjsLinearGradient1001)"></path><path d="M243.60000000000002 250L493.6 0L681.1 0L431.1 250z" fill="url(#SvgjsLinearGradient1001)"></path><path d="M504.20000000000005 250L754.2 0L1016.7 0L766.7 250z" fill="url(#SvgjsLinearGradient1001)"></path><path d="M713.8000000000001 250L963.8000000000001 0L1025.3000000000002 0L775.3000000000001 250z" fill="url(#SvgjsLinearGradient1001)"></path><path d="M1426 250L1176 0L1065 0L1315 250z" fill="url(#SvgjsLinearGradient1002)"></path><path d="M1176.4 250L926.4000000000001 0L768.9000000000001 0L1018.9000000000001 250z" fill="url(#SvgjsLinearGradient1002)"></path><path d="M950.8 250L700.8 0L616.8 0L866.8 250z" fill="url(#SvgjsLinearGradient1002)"></path><path d="M702.1999999999999 250L452.19999999999993 0L224.19999999999993 0L474.19999999999993 250z" fill="url(#SvgjsLinearGradient1002)"></path><path d="M1216.6073223606757 250L1440 26.607322360675568L1440 250z" fill="url(#SvgjsLinearGradient1001)"></path><path d="M0 250L223.39267763932443 250L 0 26.607322360675568z" fill="url(#SvgjsLinearGradient1002)"></path></g><defs><mask id="SvgjsMask1000"><rect width="1440" height="250" fill="#ffffff"></rect></mask><linearGradient x1="0%" y1="100%" x2="100%" y2="0%" id="SvgjsLinearGradient1001"><stop stop-color="rgba(15, 70, 185, 0.2)" offset="0"></stop><stop stop-opacity="0" stop-color="rgba(15, 70, 185, 0.2)" offset="0.66"></stop></linearGradient><linearGradient x1="100%" y1="100%" x2="0%" y2="0%" id="SvgjsLinearGradient1002"><stop stop-color="rgba(15, 70, 185, 0.2)" offset="0"></stop><stop stop-opacity="0" stop-color="rgba(15, 70, 185, 0.2)" offset="0.66"></stop></linearGradient></defs></svg>